<svg width="24" height="24" viewBox="0 0 24 24" fill="none" xmlns="http://www.w3.org/2000/svg">
<path d="M6.60004 12.3508V6.82352C6.60004 5.45647 7.40404 4.35294 8.40004 4.35294C9.39604 4.35294 10.2 5.45647 10.2 6.82352V12.5882" stroke="black" stroke-width="1.8" stroke-linecap="round" stroke-linejoin="round"/>
<path d="M10.2001 12.6667V4C10.2001 2.89333 11.0041 2 12.0001 2C12.9961 2 13.8001 2.89333 13.8001 4V12.6667" stroke="black" stroke-width="1.8" stroke-linecap="round" stroke-linejoin="round"/>
<path d="M13.7999 12.6667V5.33334C13.7999 4.22668 14.6039 3.33334 15.5999 3.33334C16.5959 3.33334 17.3999 4.22668 17.3999 5.33334V12.6667" stroke="black" stroke-width="1.8" stroke-linecap="round" stroke-linejoin="round"/>
<path d="M17.4231 12.4545V9.04545C17.4231 7.91364 18.2219 7 19.2115 7C20.2011 7 21 7.91364 21 9.04545V14.5C21 18.6455 18.0669 22 14.4423 22H11.6999C8.0625 22 6.26299 20.2955 5.25 18.0227L3.3299 14.1727C2.75759 13.2455 2.94836 11.9636 3.75913 11.3091C4.56991 10.6545 5.69068 10.8727 6.26299 11.8L6.58041 12.2771" stroke="black" stroke-width="1.8" stroke-linecap="round" stroke-linejoin="round"/>
</svg>
