<svg width="24" height="24" viewBox="0 0 24 24" fill="none" xmlns="http://www.w3.org/2000/svg">
<path d="M7.20001 12.5294V7.34117C7.20001 6.11082 7.91468 5.11765 8.80001 5.11765C9.68535 5.11765 10.4 6.11082 10.4 7.34117V12.5294" stroke="black" stroke-width="2" stroke-linecap="round" stroke-linejoin="round"/>
<path d="M10.4 12.6V4.8C10.4 3.804 11.1147 3 12 3C12.8854 3 13.6 3.804 13.6 4.8V12.6" stroke="black" stroke-width="2" stroke-linecap="round" stroke-linejoin="round"/>
<path d="M13.6 12.6V6.00001C13.6 5.00401 14.3146 4.20001 15.2 4.20001C16.0853 4.20001 16.8 5.00401 16.8 6.00001V12.6" stroke="black" stroke-width="2" stroke-linecap="round" stroke-linejoin="round"/>
<path d="M16.8205 12.6V9.59999C16.8205 8.60399 17.5306 7.79999 18.4102 7.79999C19.2899 7.79999 20 8.60399 20 9.59999V14.4C20 18.048 17.3928 21 14.1709 21H11.7333C9.80439 21 8.00267 19.944 6.87924 18.168L4.29324 14.112C3.78452 13.296 3.9541 12.168 4.67478 11.592C5.39547 11.016 6.39172 11.208 6.90044 12.024L7.28198 12.6" stroke="black" stroke-width="2" stroke-linecap="round" stroke-linejoin="round"/>
</svg>
