<svg width="24" height="24" viewBox="0 0 24 24" fill="none" xmlns="http://www.w3.org/2000/svg">
<path d="M6.90002 12.3333V7.08235C6.90002 5.78364 7.65936 4.73529 8.60002 4.73529C9.54069 4.73529 10.3 5.78364 10.3 7.08235V12.5588" stroke="black" stroke-width="1.6" stroke-linecap="round" stroke-linejoin="round"/>
<path d="M10.3001 12.6333V4.4C10.3001 3.34867 11.0594 2.5 12.0001 2.5C12.9408 2.5 13.7001 3.34867 13.7001 4.4V12.6333" stroke="black" stroke-width="1.6" stroke-linecap="round" stroke-linejoin="round"/>
<path d="M13.6999 12.6333V5.66668C13.6999 4.61534 14.4592 3.76668 15.3999 3.76668C16.3406 3.76668 17.0999 4.61534 17.0999 5.66668V12.6333" stroke="black" stroke-width="1.6" stroke-linecap="round" stroke-linejoin="round"/>
<path d="M17.1218 12.4318V9.19318C17.1218 8.11795 17.8762 7.25 18.8109 7.25C19.7455 7.25 20.5 8.11795 20.5 9.19318V14.375C20.5 18.3132 17.7299 21.5 14.3066 21.5H11.7166C8.28125 21.5 6.58171 19.8807 5.625 17.7216L3.81157 14.0641C3.27105 13.1832 3.45123 11.9655 4.21696 11.3436C4.98269 10.7218 6.0412 10.9291 6.58171 11.81L6.8815 12.2632" stroke="black" stroke-width="1.6" stroke-linecap="round" stroke-linejoin="round"/>
</svg>
