<svg xmlns="http://www.w3.org/2000/svg" xmlns:xlink="http://www.w3.org/1999/xlink" fill="none" version="1.1" width="653" height="165" viewBox="0 0 653 165"><path d="M546,3L546,163L565,163L566,26L567,28L568,29L570,34L578,52L580,54L590,77L604,106L606,108L625,149L632,163L653,163L653,161L651,159L648,152L641,138L613,82L597,47L576,6L575,3L546,3Z" fill="#000000" fill-opacity="1" style="mix-blend-mode:passthrough"/><path d="M497,4L496,6L493,13L491,15L483,30L476,45L468,60L454,84L452,88L453,90L458,99L460,101L462,106L464,103L467,96L473,85L493,50L498,39L499,37L502,37L502,163L520,163L520,3L497,4Z" fill="#000000" fill-opacity="1" style="mix-blend-mode:passthrough"/><path d="M373,3L373,165L376,162L391,146L390,37L392,36L394,38L397,43L403,56L410,67L416,80L424,93L430,106L435,115L455,115L454,112L449,102L442,89L437,82L431,71L425,58L412,36L398,8L395,3L373,3Z" fill="#000000" fill-opacity="1" style="mix-blend-mode:passthrough"/><path d="M279,3L268,4L262,5L258,6L255,7L252,8L247,10L245,11L240,14L237,16L233,19L224,28L221,32L219,35L217,38L211,50L208,59L207,63L206,69L205,75L205,94L206,101L207,107L208,111L209,114L210,117L213,124L214,126L217,131L219,134L221,137L233,149L237,152L240,154L246,157L251,159L254,160L257,161L261,162L267,163L294,163L300,162L304,161L308,160L311,159L316,157L318,156L323,153L326,151L329,149L338,140L340,137L342,134L346,126L349,117L350,113L351,109L352,102L352,80L279,80L279,97L329,96L332,96L334,98L334,102L333,103L333,108L332,112L331,115L329,119L326,125L324,128L315,137L311,140L303,144L294,147L286,148L275,148L269,147L265,146L262,145L259,144L251,140L247,137L239,129L236,125L233,120L232,118L230,113L229,110L228,107L227,103L226,98L226,72L227,67L228,63L229,59L231,54L235,46L237,43L239,40L250,29L253,27L259,24L262,23L265,22L269,21L276,20L287,20L293,21L302,24L304,25L306,26L309,28L313,31L318,36L321,40L323,43L326,49L328,55L328,57L349,57L348,52L347,48L346,45L340,33L338,30L335,26L328,19L323,15L318,12L310,8L307,7L304,6L300,5L294,4L286,3L279,3Z" fill="#000000" fill-opacity="1" style="mix-blend-mode:passthrough"/><path d="M0,3L2,5L2,6L5,10L14,22L27,39L52,70L58,79L62,84L56,90L49,99L34,118L27,127L10,149L2,160L2,161L0,163L128,163L129,161L130,158L131,153L133,150L136,139L137,138L137,136L129,145L38,144L40,142L40,141L43,137L50,128L55,123L57,119L61,114L66,109L78,92L82,88L85,84L86,82L83,79L80,74L72,64L61,51L55,42L47,33L44,28L40,24L39,22L133,21L132,17L130,9L128,5L128,3L0,3Z" fill="#000000" fill-opacity="1" style="mix-blend-mode:passthrough"/><path d="M185,0L181,4L169,18L168,19L167,19L166,163L185,163L185,0Z" fill="#000000" fill-opacity="1" style="mix-blend-mode:passthrough"/></svg>