<svg width="24" height="24" viewBox="0 0 24 24" fill="none" xmlns="http://www.w3.org/2000/svg">
<path d="M5.21305 6.23193C4.94276 6.71737 5.11505 7.32264 5.59786 7.58384C6.08067 7.84504 6.69117 7.66326 6.96146 7.17782L6.08726 6.70488L5.21305 6.23193ZM16.625 6.60646C16.9587 7.04049 17.5871 7.11685 18.0284 6.77701C18.4697 6.43717 18.5568 5.80982 18.2231 5.37579L17.424 5.99113L16.625 6.60646ZM6.08726 6.70488L6.96146 7.17782C7.97489 5.3577 10.1574 4.15151 12.5653 4.39737L12.6839 3.40443L12.8026 2.41149C9.62027 2.08656 6.63782 3.67305 5.21305 6.23193L6.08726 6.70488ZM12.6839 3.40443L12.5653 4.39737C14.2728 4.57171 15.706 5.41156 16.625 6.60646L17.424 5.99113L18.2231 5.37579C16.9757 3.75381 15.0512 2.64109 12.8026 2.41149L12.6839 3.40443Z" fill="black"/>
<path d="M16.0654 7.21893H18.8775V4.61893" stroke="black" stroke-width="2" stroke-linecap="round" stroke-linejoin="round"/>
<path d="M11.8086 8.53057L17.8086 14.5306L11.8086 20.5306L5.80859 14.5306L11.8086 8.53057Z" stroke="black" stroke-width="2" stroke-linecap="round" stroke-linejoin="round"/>
</svg>
