<?xml version="1.0" encoding="UTF-8"?>
<svg xmlns="http://www.w3.org/2000/svg" width="1063" height="238" viewBox="0 0 1063 238" role="img" aria-label="SIGMA logo">
  <path d="M947.00,1.00 L935.00,25.00 L935.00,27.00 L921.00,54.00 L921.00,56.00 L905.00,87.00 L905.00,89.00 L888.00,122.00 L888.00,124.00 L873.00,153.00 L873.00,155.00 L857.00,186.00 L857.00,188.00 L842.00,217.00 L842.00,219.00 L834.00,234.00 L834.00,236.00 L876.00,236.00 L880.00,229.00 L880.00,227.00 L898.00,192.00 L898.00,190.00 L902.00,184.00 L902.00,182.00 L917.00,153.00 L917.00,151.00 L947.00,90.00 L949.00,91.00 L949.00,93.00 L960.00,114.00 L960.00,116.00 L971.00,137.00 L971.00,139.00 L973.00,141.00 L973.00,143.00 L1018.00,233.00 L1018.00,235.00 L1019.00,236.00 L1062.00,236.00 L1046.00,204.00 L1046.00,202.00 L1043.00,196.00 L1041.00,194.00 L1040.00,190.00 L1022.00,155.00 L1022.00,153.00 L1004.00,118.00 L1004.00,116.00 L983.00,75.00 L983.00,73.00 L962.00,32.00 L962.00,30.00 Z
M829.00,1.00 L712.00,116.00 L591.00,2.00 L591.00,236.00 L630.00,236.00 L630.00,95.00 L631.00,94.00 L712.00,169.00 L788.00,95.00 L789.00,95.00 L790.00,96.00 L789.00,97.00 L789.00,100.00 L790.00,101.00 L790.00,236.00 L829.00,236.00 Z
M302.00,1.00 L301.00,1.00 L263.00,40.00 L263.00,236.00 L301.00,236.00 L302.00,235.00 Z
M443.00,0.00 L442.00,1.00 L432.00,1.00 L431.00,2.00 L421.00,3.00 L420.00,4.00 L413.00,5.00 L412.00,6.00 L407.00,7.00 L404.00,9.00 L402.00,9.00 L399.00,11.00 L397.00,11.00 L377.00,23.00 L359.00,39.00 L359.00,40.00 L348.00,53.00 L347.00,56.00 L343.00,61.00 L335.00,78.00 L334.00,84.00 L331.00,92.00 L331.00,95.00 L330.00,96.00 L330.00,101.00 L329.00,102.00 L328.00,126.00 L329.00,127.00 L329.00,136.00 L330.00,137.00 L330.00,142.00 L331.00,143.00 L332.00,150.00 L333.00,151.00 L336.00,162.00 L339.00,167.00 L339.00,169.00 L342.00,175.00 L354.00,193.00 L371.00,210.00 L385.00,220.00 L392.00,223.00 L394.00,225.00 L415.00,233.00 L418.00,233.00 L423.00,235.00 L428.00,235.00 L429.00,236.00 L437.00,236.00 L438.00,237.00 L456.00,237.00 L457.00,236.00 L465.00,236.00 L466.00,235.00 L471.00,235.00 L472.00,234.00 L479.00,233.00 L480.00,232.00 L488.00,230.00 L491.00,228.00 L493.00,228.00 L505.00,222.00 L521.00,211.00 L537.00,195.00 L548.00,179.00 L554.00,167.00 L554.00,165.00 L556.00,162.00 L556.00,160.00 L558.00,156.00 L558.00,153.00 L560.00,148.00 L560.00,144.00 L561.00,143.00 L561.00,139.00 L562.00,138.00 L562.00,129.00 L563.00,128.00 L563.00,110.00 L484.00,110.00 L480.00,113.00 L444.00,149.00 L518.00,149.00 L519.00,150.00 L513.00,162.00 L510.00,165.00 L508.00,169.00 L497.00,180.00 L489.00,186.00 L475.00,193.00 L469.00,194.00 L465.00,196.00 L460.00,196.00 L459.00,197.00 L434.00,197.00 L433.00,196.00 L429.00,196.00 L428.00,195.00 L425.00,195.00 L424.00,194.00 L416.00,192.00 L406.00,187.00 L397.00,181.00 L383.00,167.00 L377.00,158.00 L373.00,150.00 L373.00,148.00 L369.00,138.00 L368.00,128.00 L367.00,127.00 L367.00,111.00 L368.00,110.00 L368.00,104.00 L369.00,103.00 L371.00,93.00 L380.00,75.00 L393.00,60.00 L407.00,50.00 L415.00,46.00 L417.00,46.00 L427.00,42.00 L437.00,41.00 L438.00,40.00 L456.00,40.00 L457.00,41.00 L467.00,42.00 L468.00,43.00 L476.00,45.00 L488.00,51.00 L498.00,58.00 L510.00,70.00 L516.00,79.00 L531.00,66.00 L532.00,66.00 L546.00,53.00 L539.00,45.00 L539.00,44.00 L523.00,28.00 L506.00,16.00 L492.00,9.00 L490.00,9.00 L487.00,7.00 L485.00,7.00 L481.00,5.00 L478.00,5.00 L477.00,4.00 L474.00,4.00 L469.00,2.00 L463.00,2.00 L462.00,1.00 Z
M0.00,0.00 L43.00,46.00 L43.00,47.00 L51.00,55.00 L51.00,56.00 L62.00,67.00 L62.00,68.00 L107.00,117.00 L65.00,163.00 L65.00,164.00 L57.00,172.00 L57.00,173.00 L48.00,182.00 L48.00,183.00 L40.00,191.00 L40.00,192.00 L12.00,222.00 L12.00,223.00 L4.00,231.00 L1.00,236.00 L245.00,236.00 L245.00,235.00 L237.00,227.00 L237.00,226.00 L208.00,196.00 L207.00,197.00 L94.00,197.00 L89.00,195.00 L106.00,176.00 L106.00,175.00 L114.00,167.00 L114.00,166.00 L124.00,156.00 L124.00,155.00 L133.00,146.00 L133.00,145.00 L141.00,137.00 L141.00,136.00 L159.00,117.00 L90.00,41.00 L91.00,40.00 L209.00,40.00 L246.00,0.00 Z" fill="#000000" fill-rule="evenodd" clip-rule="evenodd"/>
</svg>
