<svg width="24" height="24" viewBox="0 0 24 24" fill="none" xmlns="http://www.w3.org/2000/svg">
<path d="M18.2857 4H5.71429C4.76751 4 4 4.89543 4 6V18C4 19.1046 4.76751 20 5.71429 20H18.2857C19.2325 20 20 19.1046 20 18V6C20 4.89543 19.2325 4 18.2857 4Z" stroke="black" stroke-width="2" stroke-linecap="round" stroke-linejoin="round"/>
<path d="M7.42859 15.4286L10.8572 12L14.2857 15.4286L16.5714 13.1429L20 16.5714" stroke="black" stroke-width="2" stroke-linecap="round" stroke-linejoin="round"/>
<path d="M8.57145 10.2857C9.20263 10.2857 9.7143 9.77404 9.7143 9.14286C9.7143 8.51167 9.20263 8 8.57145 8C7.94026 8 7.42859 8.51167 7.42859 9.14286C7.42859 9.77404 7.94026 10.2857 8.57145 10.2857Z" stroke="black" stroke-width="2" stroke-linecap="round" stroke-linejoin="round"/>
</svg>
